<?xml version="1.0" standalone="no"?>
<!DOCTYPE svg PUBLIC "-//W3C//DTD SVG 20010904//EN"
 "http://www.w3.org/TR/2001/REC-SVG-20010904/DTD/svg10.dtd">
<svg version="1.0" xmlns="http://www.w3.org/2000/svg"
 width="498.000000pt" height="498.000000pt" viewBox="0 0 498.000000 498.000000"
 preserveAspectRatio="xMidYMid meet">
<metadata>
Created by potrace 1.14, written by Peter Selinger 2001-2017
</metadata>
<g transform="translate(0.000000,498.000000) scale(0.100000,-0.100000)"
fill="#000000" stroke="none">
<path d="M2175 3459 c-95 -23 -117 -32 -150 -61 -25 -21 -37 -42 -42 -71 -12
-80 -49 -89 -194 -52 -67 18 -188 16 -225 -2 -41 -21 -68 -10 -89 35 -11 23
-28 45 -37 48 -10 3 -18 11 -18 18 0 8 -7 19 -14 26 -13 10 -15 7 -13 -17 l2
-28 -135 -5 -135 -5 -5 -50 c-6 -54 -16 -78 -30 -70 -15 9 -29 -28 -25 -65 8
-80 17 -190 21 -255 2 -38 8 -110 12 -159 11 -125 4 -394 -13 -498 -8 -48 -17
-108 -20 -135 -3 -26 -8 -59 -10 -73 -3 -14 -7 -45 -10 -70 -3 -25 -6 -54 -9
-65 -2 -11 -7 -40 -11 -65 -12 -83 -45 -255 -55 -285 -4 -16 -21 -70 -35 -120
-47 -157 -96 -308 -127 -382 -16 -40 -28 -78 -26 -85 4 -11 202 -84 258 -95
20 -3 29 2 43 26 21 36 25 37 70 15 33 -16 33 -15 67 16 22 21 40 30 53 26 14
-3 38 11 81 48 34 29 72 62 85 72 13 10 35 31 50 45 35 34 83 57 134 63 123
16 156 19 198 19 62 -1 179 -12 190 -18 4 -3 25 -8 46 -10 82 -10 120 -17 158
-30 22 -7 87 -27 145 -45 139 -43 199 -70 205 -95 8 -31 8 -156 0 -195 -4 -19
-14 -55 -22 -78 -8 -24 -12 -46 -10 -49 3 -2 33 3 68 12 88 23 233 97 291 150
32 28 60 45 75 45 17 0 41 16 72 46 63 64 101 91 136 100 17 4 62 20 102 35
67 26 82 28 225 29 141 2 161 4 248 32 52 17 100 34 106 39 6 5 14 6 17 2 4
-3 7 -2 7 4 0 5 19 16 43 23 36 12 112 54 127 70 3 4 21 16 41 28 43 26 149
138 149 158 0 8 4 14 9 14 14 0 41 112 41 171 0 30 9 83 20 119 39 128 21 297
-37 343 -13 10 -23 23 -23 29 0 5 -18 28 -39 50 -71 72 -180 117 -301 124 -41
2 -88 6 -105 9 -16 2 -33 4 -37 4 -13 1 -9 21 5 21 12 0 59 41 162 139 66 62
155 181 187 250 21 45 25 69 26 146 1 82 -3 100 -28 151 -52 109 -109 150
-248 183 -74 17 -112 21 -180 17 -133 -9 -213 -17 -252 -26 -19 -5 -58 -11
-86 -14 -28 -3 -85 -17 -128 -31 -42 -14 -93 -25 -112 -25 -33 0 -142 -43
-154 -61 -3 -5 -26 -15 -50 -24 -43 -15 -59 -10 -60 17 0 12 -109 3 -122 -10
-8 -8 -21 12 -51 81 -63 148 -159 258 -275 314 -51 25 -149 30 -227 12z m1551
-672 c17 -16 -316 -280 -341 -271 -9 4 -247 -71 -331 -103 -8 -3 -14 17 -19
59 -9 85 -14 117 -25 158 -18 64 -35 54 205 109 72 16 155 33 185 36 30 3 60
9 67 13 13 8 251 8 259 -1z m-326 -862 c36 -3 73 -8 82 -11 40 -12 131 -27
168 -28 14 -1 27 -4 30 -7 3 -4 21 -9 40 -12 53 -7 130 -29 130 -36 0 -3 -37
-44 -83 -91 -65 -66 -99 -93 -157 -121 -41 -20 -138 -66 -215 -103 l-140 -68
-134 1 c-75 1 -136 3 -136 4 -1 1 6 43 17 92 10 50 20 106 23 125 3 19 8 46
11 60 5 20 10 83 14 192 0 3 8 8 17 10 26 5 261 0 333 -7z m-722 -772 c6 -97
7 -169 3 -178 -3 -5 -6 -20 -7 -33 -1 -26 -41 -72 -61 -72 -9 0 -11 5 -6 13
15 25 21 129 11 216 -3 25 2 41 20 62 13 16 27 29 31 29 4 0 8 -17 9 -37z
m-22 -338 c-2 -17 -55 -75 -68 -75 -16 0 -1 41 27 70 29 30 45 32 41 5z"/>
</g>
</svg>
